<svg width="75" height="59" viewBox="0 0 75 59" fill="none" xmlns="http://www.w3.org/2000/svg">
<path d="M23.2758 23.0118C27.3714 23.0871 29.8136 22.6881 36.1384 19.5469C42.4768 16.399 49.3256 17.5798 51.1718 8.13861C53.0181 -1.30255 59.169 -1.15055 62.7496 1.72985C72.1681 9.30658 59.7902 18.1211 62.8369 17.1103C69.7547 14.8153 75.1987 26.3059 70.1932 33.1298C64.3505 39.0811 58.0466 31.2481 54.2964 28.5673C48.0449 24.0985 30.8381 35.4165 25.6817 38.0605M15.5404 21.4722C8.8547 16.3891 4.57951 21.8667 3.68077 27.0351C1.31669 40.6302 15.1138 36.0748 12.3776 38.0179C6.16518 42.4296 8.8483 55.3305 16.2839 55.7995C23.8161 54.9191 23.8257 43.8613 24.9584 38.6864" stroke="white" stroke-width="5" stroke-linecap="round"/>
</svg>
