<svg width="69" height="50" viewBox="0 0 69 50" fill="none" xmlns="http://www.w3.org/2000/svg">
<path d="M13.4798 15.2783C15.0655 14.634 16.683 13.9868 18.322 13.3662M18.322 13.3662C25.9288 10.4859 33.9986 8.17875 41.4951 9.39804C51.4791 11.0217 57.2949 13.0975 63.5987 22.5787C67.4101 28.3113 67.002 42.1955 59.8697 45.6932C53.4164 48.8577 45.0979 46.6759 40.8245 42.348C33.0165 34.4402 28.6186 28.3534 19.8638 15.7779C19.3511 14.9973 18.8336 14.1864 18.322 13.3662ZM18.322 13.3662C16.6939 10.7559 15.1254 8.0507 13.9616 5.92223C12.4321 3.12493 9.44047 -0.983201 6.31741 0.21296C4.04848 1.08198 4.18348 6.15586 3.66916 8.55969C3.25041 10.5168 1.90618 23.9192 3.56287 22.8627C5.78108 21.448 7.72556 19.4389 9.76977 17.4488M57.3439 29.8437C57.4052 29.5571 57.4987 29.6263 57.5786 29.8806M57.5786 29.8806C57.8692 30.8059 57.9784 34.1815 55.6935 31.7633C53.3269 29.2585 58.8963 28.6255 57.5786 29.8806ZM57.5786 29.8806C57.5188 29.9375 57.445 29.9983 57.3555 30.0629M44.0091 26.2102C42.0152 26.1682 40.0446 27.3576 38.1469 28.0202C37.5702 28.2216 37.3205 27.4285 37.3963 27.1107C36.9305 17.797 41.1071 15.9514 41.64 16.3515C41.8468 16.5068 42.0167 16.6769 42.2014 16.8821C44.0042 18.884 45.7357 21.2568 47.2755 23.5628" stroke="white" stroke-width="5" stroke-linecap="round"/>
</svg>
